# xmcd
#
# Track frame offsets:
#	150
#	18263
#	32685
#	48487
#	68008
#	84628
#	99029
#	114242
#	134906
#	151606
#	166588
#	180227
#	197075
#	210227
#
# Disc length: 3158 seconds
#
# Revision: 0
# Processed by: cddbd v1.5.1PL0 Copyright (c) Steve Scherf et al.
# Submitted via: EasyCDDAExtractor 8.0.2.1
#
DISCID=9f0c540e
DTITLE=Various Artist - Mr Music Country 07 2005
DYEAR=1900
DGENRE=Country
TTITLE0=Mark Chesnutt - The Lord loves the drinkin' man
TTITLE1=Chely Wright - C'est la vie (You never can tell)
TTITLE2=Billy Keeble - Neon sun
TTITLE3=Fred Leonard - Cincinatti Town
TTITLE4=Roy Rivers - Oh railroad
TTITLE5=Jody King - Twice the fool I once was
TTITLE6=Ken Mellons - Interstate gypsy
TTITLE7=Butch Martin - Last of the good old boys
TTITLE8=Curtis Potter - Twin fiddles turn me on
TTITLE9=Slow Horses - Seven little prophets
TTITLE10=Bob Plunkert - Think I'll go somewhere and cry myself to sleep
TTITLE11=Red Kilby - Aka Gumpy's girl
TTITLE12=Roy Martin - It hurts sometimes
TTITLE13=Valerie Jay - Sweet dreams
EXTD=
EXTT0=
EXTT1=
EXTT2=
EXTT3=
EXTT4=
EXTT5=
EXTT6=
EXTT7=
EXTT8=
EXTT9=
EXTT10=
EXTT11=
EXTT12=
EXTT13=
PLAYORDER=
